<?xml version="1.0" encoding="UTF-8" standalone="no"?>
<svg
   xmlns:dc="http://purl.org/dc/elements/1.1/"
   xmlns:cc="http://creativecommons.org/ns#"
   xmlns:rdf="http://www.w3.org/1999/02/22-rdf-syntax-ns#"
   xmlns:svg="http://www.w3.org/2000/svg"
   xmlns="http://www.w3.org/2000/svg"
   viewBox="0 0 576 432"
   height="432"
   width="576"
   xml:space="preserve"
   version="1.1"
   id="svg2"><metadata
     id="metadata8"><rdf:RDF><cc:Work
         rdf:about=""><dc:format>image/svg+xml</dc:format><dc:type
           rdf:resource="http://purl.org/dc/dcmitype/StillImage" /></cc:Work></rdf:RDF></metadata><defs
     id="defs6"><clipPath
       id="clipPath112"
       clipPathUnits="userSpaceOnUse"><path
         id="path114"
         d="m 57.6,38.016 357.12,0 0,266.112 -357.12,0 0,-266.112 z" /></clipPath><clipPath
       id="clipPath122"
       clipPathUnits="userSpaceOnUse"><path
         id="path124"
         d="m 57.6,38.016 357.12,0 0,266.112 -357.12,0 0,-266.112 z" /></clipPath><clipPath
       id="clipPath132"
       clipPathUnits="userSpaceOnUse"><path
         id="path134"
         d="m 57.6,38.016 357.12,0 0,266.112 -357.12,0 0,-266.112 z" /></clipPath></defs><g
     transform="matrix(1.25,0,0,-1.25,0,432)"
     id="g10"><path
       id="path12"
       style="fill:#ffffff;fill-opacity:1;fill-rule:nonzero;stroke:none"
       d="m 0,0 460.8,0 0,345.6 L 0,345.6 0,0 Z" /><path
       id="path14"
       style="fill:#ffffff;fill-opacity:1;fill-rule:nonzero;stroke:none"
       d="m 57.6,38.016 357.12,0 0,266.112 -357.12,0 0,-266.112 z" /><path
       id="path16"
       style="fill:#000000;fill-opacity:1;fill-rule:nonzero;stroke:#000000;stroke-width:0.80000001;stroke-linecap:butt;stroke-linejoin:round;stroke-miterlimit:10;stroke-dasharray:none;stroke-opacity:1"
       d="m 85.608535,38.016 0,-3.5" /><text
       id="text18"
       style="font-variant:normal;font-weight:normal;font-size:10px;font-family:'DejaVu Sans';-inkscape-font-specification:DejaVuSans;writing-mode:lr-tb;fill:#000000;fill-opacity:1;fill-rule:nonzero;stroke:none"
       transform="matrix(1,0,0,-1,82.428847,23.42225)"><tspan
         id="tspan20"
         y="0"
         x="0">0</tspan></text>
<path
       id="path22"
       style="fill:#000000;fill-opacity:1;fill-rule:nonzero;stroke:#000000;stroke-width:0.80000001;stroke-linecap:butt;stroke-linejoin:round;stroke-miterlimit:10;stroke-dasharray:none;stroke-opacity:1"
       d="m 145.23288,38.016 0,-3.5" /><text
       id="text24"
       style="font-variant:normal;font-weight:normal;font-size:10px;font-family:'DejaVu Sans';-inkscape-font-specification:DejaVuSans;writing-mode:lr-tb;fill:#000000;fill-opacity:1;fill-rule:nonzero;stroke:none"
       transform="matrix(1,0,0,-1,135.69382,23.42225)"><tspan
         id="tspan26"
         y="0"
         x="0 6.3600001 12.72">200</tspan></text>
<path
       id="path28"
       style="fill:#000000;fill-opacity:1;fill-rule:nonzero;stroke:#000000;stroke-width:0.80000001;stroke-linecap:butt;stroke-linejoin:round;stroke-miterlimit:10;stroke-dasharray:none;stroke-opacity:1"
       d="m 204.85722,38.016 0,-3.5" /><text
       id="text30"
       style="font-variant:normal;font-weight:normal;font-size:10px;font-family:'DejaVu Sans';-inkscape-font-specification:DejaVuSans;writing-mode:lr-tb;fill:#000000;fill-opacity:1;fill-rule:nonzero;stroke:none"
       transform="matrix(1,0,0,-1,195.31816,23.42225)"><tspan
         id="tspan32"
         y="0"
         x="0 6.3600001 12.72">400</tspan></text>
<path
       id="path34"
       style="fill:#000000;fill-opacity:1;fill-rule:nonzero;stroke:#000000;stroke-width:0.80000001;stroke-linecap:butt;stroke-linejoin:round;stroke-miterlimit:10;stroke-dasharray:none;stroke-opacity:1"
       d="m 264.48156,38.016 0,-3.5" /><text
       id="text36"
       style="font-variant:normal;font-weight:normal;font-size:10px;font-family:'DejaVu Sans';-inkscape-font-specification:DejaVuSans;writing-mode:lr-tb;fill:#000000;fill-opacity:1;fill-rule:nonzero;stroke:none"
       transform="matrix(1,0,0,-1,254.9425,23.42225)"><tspan
         id="tspan38"
         y="0"
         x="0 6.3600001 12.72">600</tspan></text>
<path
       id="path40"
       style="fill:#000000;fill-opacity:1;fill-rule:nonzero;stroke:#000000;stroke-width:0.80000001;stroke-linecap:butt;stroke-linejoin:round;stroke-miterlimit:10;stroke-dasharray:none;stroke-opacity:1"
       d="m 324.1059,38.016 0,-3.5" /><text
       id="text42"
       style="font-variant:normal;font-weight:normal;font-size:10px;font-family:'DejaVu Sans';-inkscape-font-specification:DejaVuSans;writing-mode:lr-tb;fill:#000000;fill-opacity:1;fill-rule:nonzero;stroke:none"
       transform="matrix(1,0,0,-1,314.56684,23.42225)"><tspan
         id="tspan44"
         y="0"
         x="0 6.3600001 12.72">800</tspan></text>
<path
       id="path46"
       style="fill:#000000;fill-opacity:1;fill-rule:nonzero;stroke:#000000;stroke-width:0.80000001;stroke-linecap:butt;stroke-linejoin:round;stroke-miterlimit:10;stroke-dasharray:none;stroke-opacity:1"
       d="m 383.73025,38.016 0,-3.5" /><text
       id="text48"
       style="font-variant:normal;font-weight:normal;font-size:10px;font-family:'DejaVu Sans';-inkscape-font-specification:DejaVuSans;writing-mode:lr-tb;fill:#000000;fill-opacity:1;fill-rule:nonzero;stroke:none"
       transform="matrix(1,0,0,-1,371.0115,23.42225)"><tspan
         id="tspan50"
         y="0"
         x="0 6.3600001 12.72 19.08">1000</tspan></text>
<text
       id="text52"
       style="font-variant:normal;font-weight:normal;font-size:10px;font-family:'DejaVu Sans';-inkscape-font-specification:DejaVuSans;writing-mode:lr-tb;fill:#000000;fill-opacity:1;fill-rule:nonzero;stroke:none"
       transform="matrix(1,0,0,-1,194.20687,9.750375)"><tspan
         id="tspan54"
         y="0"
         x="0 2.95 6.8699999 13.02 17.129999 23.26 27.18 29.959999 36.080002 42.419998 45.599998 49.5 55.650002 62 68.120003 73.620003 79.959999">Iteration (epoch)</tspan></text>
<path
       id="path56"
       style="fill:#000000;fill-opacity:1;fill-rule:nonzero;stroke:#000000;stroke-width:0.80000001;stroke-linecap:butt;stroke-linejoin:round;stroke-miterlimit:10;stroke-dasharray:none;stroke-opacity:1"
       d="m 57.6,55.354068 -3.5,0" /><text
       id="text58"
       style="font-variant:normal;font-weight:normal;font-size:10px;font-family:'DejaVu Sans';-inkscape-font-specification:DejaVuSans;writing-mode:lr-tb;fill:#000000;fill-opacity:1;fill-rule:nonzero;stroke:none"
       transform="matrix(1,0,0,-1,34.69375,51.557193)"><tspan
         id="tspan60"
         y="0"
         x="0 6.3600001 9.54">0.4</tspan></text>
<path
       id="path62"
       style="fill:#000000;fill-opacity:1;fill-rule:nonzero;stroke:#000000;stroke-width:0.80000001;stroke-linecap:butt;stroke-linejoin:round;stroke-miterlimit:10;stroke-dasharray:none;stroke-opacity:1"
       d="m 57.6,87.107336 -3.5,0" /><text
       id="text64"
       style="font-variant:normal;font-weight:normal;font-size:10px;font-family:'DejaVu Sans';-inkscape-font-specification:DejaVuSans;writing-mode:lr-tb;fill:#000000;fill-opacity:1;fill-rule:nonzero;stroke:none"
       transform="matrix(1,0,0,-1,34.69375,83.310461)"><tspan
         id="tspan66"
         y="0"
         x="0 6.3600001 9.54">0.5</tspan></text>
<path
       id="path68"
       style="fill:#000000;fill-opacity:1;fill-rule:nonzero;stroke:#000000;stroke-width:0.80000001;stroke-linecap:butt;stroke-linejoin:round;stroke-miterlimit:10;stroke-dasharray:none;stroke-opacity:1"
       d="m 57.6,118.8606 -3.5,0" /><text
       id="text70"
       style="font-variant:normal;font-weight:normal;font-size:10px;font-family:'DejaVu Sans';-inkscape-font-specification:DejaVuSans;writing-mode:lr-tb;fill:#000000;fill-opacity:1;fill-rule:nonzero;stroke:none"
       transform="matrix(1,0,0,-1,34.69375,115.06373)"><tspan
         id="tspan72"
         y="0"
         x="0 6.3600001 9.54">0.6</tspan></text>
<path
       id="path74"
       style="fill:#000000;fill-opacity:1;fill-rule:nonzero;stroke:#000000;stroke-width:0.80000001;stroke-linecap:butt;stroke-linejoin:round;stroke-miterlimit:10;stroke-dasharray:none;stroke-opacity:1"
       d="m 57.6,150.61387 -3.5,0" /><text
       id="text76"
       style="font-variant:normal;font-weight:normal;font-size:10px;font-family:'DejaVu Sans';-inkscape-font-specification:DejaVuSans;writing-mode:lr-tb;fill:#000000;fill-opacity:1;fill-rule:nonzero;stroke:none"
       transform="matrix(1,0,0,-1,34.69375,146.817)"><tspan
         id="tspan78"
         y="0"
         x="0 6.3600001 9.54">0.7</tspan></text>
<path
       id="path80"
       style="fill:#000000;fill-opacity:1;fill-rule:nonzero;stroke:#000000;stroke-width:0.80000001;stroke-linecap:butt;stroke-linejoin:round;stroke-miterlimit:10;stroke-dasharray:none;stroke-opacity:1"
       d="m 57.6,182.36714 -3.5,0" /><text
       id="text82"
       style="font-variant:normal;font-weight:normal;font-size:10px;font-family:'DejaVu Sans';-inkscape-font-specification:DejaVuSans;writing-mode:lr-tb;fill:#000000;fill-opacity:1;fill-rule:nonzero;stroke:none"
       transform="matrix(1,0,0,-1,34.69375,178.57026)"><tspan
         id="tspan84"
         y="0"
         x="0 6.3600001 9.54">0.8</tspan></text>
<path
       id="path86"
       style="fill:#000000;fill-opacity:1;fill-rule:nonzero;stroke:#000000;stroke-width:0.80000001;stroke-linecap:butt;stroke-linejoin:round;stroke-miterlimit:10;stroke-dasharray:none;stroke-opacity:1"
       d="m 57.6,214.12041 -3.5,0" /><text
       id="text88"
       style="font-variant:normal;font-weight:normal;font-size:10px;font-family:'DejaVu Sans';-inkscape-font-specification:DejaVuSans;writing-mode:lr-tb;fill:#000000;fill-opacity:1;fill-rule:nonzero;stroke:none"
       transform="matrix(1,0,0,-1,34.69375,210.32353)"><tspan
         id="tspan90"
         y="0"
         x="0 6.3600001 9.54">0.9</tspan></text>
<path
       id="path92"
       style="fill:#000000;fill-opacity:1;fill-rule:nonzero;stroke:#000000;stroke-width:0.80000001;stroke-linecap:butt;stroke-linejoin:round;stroke-miterlimit:10;stroke-dasharray:none;stroke-opacity:1"
       d="m 57.6,245.87367 -3.5,0" /><text
       id="text94"
       style="font-variant:normal;font-weight:normal;font-size:10px;font-family:'DejaVu Sans';-inkscape-font-specification:DejaVuSans;writing-mode:lr-tb;fill:#000000;fill-opacity:1;fill-rule:nonzero;stroke:none"
       transform="matrix(1,0,0,-1,34.69375,242.0768)"><tspan
         id="tspan96"
         y="0"
         x="0 6.3600001 9.54">1.0</tspan></text>
<path
       id="path98"
       style="fill:#000000;fill-opacity:1;fill-rule:nonzero;stroke:#000000;stroke-width:0.80000001;stroke-linecap:butt;stroke-linejoin:round;stroke-miterlimit:10;stroke-dasharray:none;stroke-opacity:1"
       d="m 57.6,277.62694 -3.5,0" /><text
       id="text100"
       style="font-variant:normal;font-weight:normal;font-size:10px;font-family:'DejaVu Sans';-inkscape-font-specification:DejaVuSans;writing-mode:lr-tb;fill:#000000;fill-opacity:1;fill-rule:nonzero;stroke:none"
       transform="matrix(1,0,0,-1,34.69375,273.83007)"><tspan
         id="tspan102"
         y="0"
         x="0 6.3600001 9.54">1.1</tspan></text>
<text
       id="text104"
       style="font-variant:normal;font-weight:normal;font-size:10px;font-family:'DejaVu Sans';-inkscape-font-specification:DejaVuSans;writing-mode:lr-tb;fill:#000000;fill-opacity:1;fill-rule:nonzero;stroke:none"
       transform="matrix(0,1,1,0,28.615625,115.09544)"><tspan
         id="tspan106"
         y="0"
         x="0 6.9499998 15.58 21.93 25.110001 29.01 34.509998 38.619999 44.740002 49.950001 55.16 58.77 64.690002 70.82 73.599998 76.379997 82.730003 88.860001 92.779999 95.559998 101.68 108.02">RMS (cross-validation)</tspan></text>
<g
       id="g108"><g
         clip-path="url(#clipPath112)"
         id="g110"><path
           id="path116"
           style="fill:none;stroke:#00bfbf;stroke-width:1.5;stroke-linecap:butt;stroke-linejoin:round;stroke-miterlimit:10;stroke-dasharray:5.55, 2.4;stroke-dashoffset:0;stroke-opacity:1"
           d="m 73.832727,75.327663 324.654543,0" /></g></g><g
       id="g118"><g
         clip-path="url(#clipPath122)"
         id="g120"><path
           id="path126"
           style="fill:none;stroke:#ff0000;stroke-width:1.5;stroke-linecap:butt;stroke-linejoin:round;stroke-miterlimit:10;stroke-dasharray:5.55, 2.4;stroke-dashoffset:0;stroke-opacity:1"
           d="m 73.832727,50.112 324.654543,0" /></g></g><g
       id="g128"><g
         clip-path="url(#clipPath132)"
         id="g130"><path
           id="path136"
           style="fill:none;stroke:#1f77b4;stroke-width:1.5;stroke-linecap:square;stroke-linejoin:round;stroke-miterlimit:10;stroke-dasharray:none;stroke-opacity:1"
           d="m 88.589752,292.032 2.981217,-146.85742 2.981217,3.91558 2.981217,14.98511 2.981217,-48.51986 2.98122,48.15333 2.98122,-9.37369 2.98121,-42.70694 2.98122,47.28306 2.98122,-63.129003 2.98121,66.440943 2.98122,-62.450856 2.98122,1.426826 2.98121,-10.586476 2.98122,-2.726597 2.98122,-11.265518 2.98122,7.926414 2.98121,-8.750764 2.98122,22.25383 2.98122,-11.958727 2.98121,-3.7568 2.98122,-9.586043 2.98122,43.264481 2.98122,-29.271269 2.98121,0.199693 2.98122,-2.795225 2.98122,-7.984641 2.98121,11.369547 2.98122,-13.414746 2.98122,73.051111 2.98122,-47.541151 2.98121,27.819681 2.98122,-55.691857 2.98122,-0.545308 2.98121,40.180845 2.98122,-23.910282 2.98122,-8.909169 2.98122,9.008343 2.98121,2.929091 2.98122,-21.240613 2.98122,-6.861651 2.98121,6.200741 2.98122,16.410457 2.98122,-6.902031 2.98122,0.511316 2.98121,20.366629 2.98122,-11.358541 2.98122,-3.857375 2.98121,-6.764976 2.98122,13.145943 2.98122,-13.492977 2.98122,17.269026 2.98121,-23.000998 2.98122,-0.534699 2.98122,-5.000692 2.98121,3.630655 2.98122,6.492189 2.98122,-5.164689 2.98122,9.361103 2.98121,54.96435 2.98122,-54.783982 2.98122,-6.746522 2.98121,-1.002485 2.98122,-10.725471 2.98122,24.252327 2.98122,21.667943 2.98121,-32.578959 2.98122,-3.411743 2.98122,1.343785 2.98121,-10.748495 2.98122,11.007655 2.98122,12.215595 2.98121,-12.826313 2.98122,10.249065 2.98122,16.63959 2.98122,-10.393275 2.98121,-22.376387 2.98122,-0.354691 2.98122,17.487153 2.98121,69.62395 2.98122,-76.959812 2.98122,7.479675 2.98122,3.885566 2.98121,-0.291827 2.98122,-17.815801 2.98122,12.568063 2.98121,-4.720619 2.98122,-7.897343 2.98122,39.940038 2.98122,-33.072927 2.98121,87.420987 2.98122,-100.425994 2.98122,38.079874 2.98122,-9.241145 2.98121,-11.688059 2.98122,5.752989 2.98122,-9.195081 2.98121,-8.709845 2.98122,11.179781 2.98122,-12.560321" /></g></g><g
       id="g138"><path
         id="path140"
         style="fill:none;stroke:#000000;stroke-width:0.80000001;stroke-linecap:square;stroke-linejoin:miter;stroke-miterlimit:10;stroke-dasharray:none;stroke-opacity:1"
         d="m 57.6,38.016 0,266.112" /><path
         id="path142"
         style="fill:none;stroke:#000000;stroke-width:0.80000001;stroke-linecap:square;stroke-linejoin:miter;stroke-miterlimit:10;stroke-dasharray:none;stroke-opacity:1"
         d="m 414.72,38.016 0,266.112" /><path
         id="path144"
         style="fill:none;stroke:#000000;stroke-width:0.80000001;stroke-linecap:square;stroke-linejoin:miter;stroke-miterlimit:10;stroke-dasharray:none;stroke-opacity:1"
         d="m 57.6,38.016 357.12,0" /><path
         id="path146"
         style="fill:none;stroke:#000000;stroke-width:0.80000001;stroke-linecap:square;stroke-linejoin:miter;stroke-miterlimit:10;stroke-dasharray:none;stroke-opacity:1"
         d="m 57.6,304.128 357.12,0" /><path
         id="path148"
         style="fill:#ffffff;fill-opacity:0.8;fill-rule:nonzero;stroke:#cccccc;stroke-width:1;stroke-linecap:butt;stroke-linejoin:miter;stroke-miterlimit:10;stroke-dasharray:none;stroke-opacity:0.8"
         d="m 290.5325,252.11237 117.1875,0 c 1.33333,0 2,0.66667 2,2 l 0,43.01563 c 0,1.33333 -0.66667,2 -2,2 l -117.1875,0 c -1.33333,0 -2,-0.66667 -2,-2 l 0,-43.01563 c 0,-1.33333 0.66667,-2 2,-2 z" /><path
         id="path150"
         style="fill:none;stroke:#1f77b4;stroke-width:1.5;stroke-linecap:square;stroke-linejoin:round;stroke-miterlimit:10;stroke-dasharray:none;stroke-opacity:1"
         d="m 292.5325,291.03425 20,0" /><text
         id="text152"
         style="font-variant:normal;font-weight:normal;font-size:10px;font-family:'DejaVu Sans';-inkscape-font-specification:DejaVuSans;writing-mode:lr-tb;fill:#000000;fill-opacity:1;fill-rule:nonzero;stroke:none"
         transform="matrix(1,0,0,-1,320.5325,287.53425)"><tspan
           id="tspan154"
           y="0"
           x="0 7.6999998 10.65 18.129999 25.110001 31.950001">DINCAE</tspan></text>
<path
         id="path156"
         style="fill:none;stroke:#00bfbf;stroke-width:1.5;stroke-linecap:butt;stroke-linejoin:round;stroke-miterlimit:10;stroke-dasharray:5.55, 2.4;stroke-dashoffset:0;stroke-opacity:1"
         d="m 292.5325,276.36237 20,0" /><text
         id="text158"
         style="font-variant:normal;font-weight:normal;font-size:10px;font-family:'DejaVu Sans';-inkscape-font-specification:DejaVuSans;writing-mode:lr-tb;fill:#000000;fill-opacity:1;fill-rule:nonzero;stroke:none"
         transform="matrix(1,0,0,-1,320.5325,272.86237)"><tspan
           id="tspan160"
           y="0"
           x="0 7.6999998 10.65 18.129999 24.450001 32.32">DINEOF</tspan></text>
<path
         id="path162"
         style="fill:none;stroke:#ff0000;stroke-width:1.5;stroke-linecap:butt;stroke-linejoin:round;stroke-miterlimit:10;stroke-dasharray:5.55, 2.4;stroke-dashoffset:0;stroke-opacity:1"
         d="m 292.5325,261.6905 20,0" /><text
         id="text164"
         style="font-variant:normal;font-weight:normal;font-size:10px;font-family:'DejaVu Sans';-inkscape-font-specification:DejaVuSans;writing-mode:lr-tb;fill:#000000;fill-opacity:1;fill-rule:nonzero;stroke:none"
         transform="matrix(1,0,0,-1,320.5325,258.1905)"><tspan
           id="tspan166"
           y="0"
           x="0 7.6999998 10.65 18.129999 25.110001 31.950001 38.27 41.450001 47.580002 53.5 59.849998 63.029999 66.209999 70.32 76.470001 81.970001">DINCAE avg. rec.</tspan></text>
</g></g></svg>